<svg id="Ñëîé_1" data-name="Ñëîé 1" xmlns="http://www.w3.org/2000/svg" viewBox="0 0 481.76 526.57"><defs><style>.cls-1{fill:#f45d01;}.cls-2,.cls-4{fill:#fff;}.cls-3,.cls-5{fill:#18344e;}.cls-4,.cls-5{stroke:#18344e;stroke-miterlimit:10;}</style></defs><path class="cls-1" d="M300.13,694.27a4.32,4.32,0,0,1,0-6.08l59.34-59.33a4.29,4.29,0,0,1,6.07,6.07l-59.33,59.34A4.32,4.32,0,0,1,300.13,694.27Z" transform="translate(-279.3 -230.98)"/><path class="cls-1" d="M280.55,752.48a4.3,4.3,0,0,1,0-6.07l81.25-81.24a4.29,4.29,0,1,1,6.07,6.07l-81.24,81.24A4.3,4.3,0,0,1,280.55,752.48Z" transform="translate(-279.3 -230.98)"/><path class="cls-2" d="M454.19,615.78c-16.57,16.57-55,18.83-55,18.83s2.25-38.46,18.83-55,31.19-15,41.19-5S470.77,599.2,454.19,615.78Z" transform="translate(-279.3 -230.98)"/><path class="cls-1" d="M394.6,639.18l.28-4.82c.1-1.64,2.55-40.29,20.08-57.82,16.36-16.36,34-18.22,47.26-5s11.37,30.9-5,47.26c-17.53,17.53-56.18,20-57.81,20.08Zm61.55-61.55c-9.85-9.86-22-8.13-35.12,5-11.82,11.82-15.87,36.59-17.1,47.22,10.63-1.23,35.41-5.28,47.23-17.1C464.28,599.62,466,587.48,456.15,577.63Z" transform="translate(-279.3 -230.98)"/><path class="cls-2" d="M437.63,497.12l50.48-8.9-23.7,53.38-59.72,10.53a1.47,1.47,0,0,1-1.6-2l17.66-39.77A22.82,22.82,0,0,1,437.63,497.12Z" transform="translate(-279.3 -230.98)"/><path class="cls-3" d="M400.36,554.76a6.11,6.11,0,0,1-.47-.53,5.74,5.74,0,0,1-.72-5.88l17.65-39.77a27.07,27.07,0,0,1,20.06-15.69l58.43-10.3-27.9,62.84-62,10.93A5.75,5.75,0,0,1,400.36,554.76Zm38-53.41a18.51,18.51,0,0,0-13.7,10.71L409.17,547l52.24-9.22,19.5-43.91Z" transform="translate(-279.3 -230.98)"/><path class="cls-4" d="M536.05,595.54l8.9-50.48-53.38,23.7-10.52,59.69a1.48,1.48,0,0,0,2.06,1.61l39.74-17.64A22.82,22.82,0,0,0,536.05,595.54Z" transform="translate(-279.3 -230.98)"/><path class="cls-5" d="M478.42,632.79a5.74,5.74,0,0,1-1.6-5.08l10.92-62,62.84-27.9-10.3,58.43a27.06,27.06,0,0,1-15.69,20.05L484.85,634a5.75,5.75,0,0,1-5.9-.73A4.8,4.8,0,0,1,478.42,632.79Zm17-61L486.19,624l34.91-15.51a18.46,18.46,0,0,0,10.72-13.7l7.5-42.54Z" transform="translate(-279.3 -230.98)"/><path class="cls-2" d="M478,608.6c30.53-17,68-40.08,97.1-69.15,60.89-60.9,52.58-134,52.58-134s-73.08-8.3-134,52.59c-29.07,29.07-52.2,66.57-69.16,97.1Z" transform="translate(-279.3 -230.98)"/><path class="cls-3" d="M477.26,613.93l-58-58,1.57-2.84c15.11-27.2,38.8-67,69.88-98a184.47,184.47,0,0,1,91.95-50.3c26.27-5.61,44.76-3.61,45.54-3.52l3.39.38L632,405c.09.77,2.09,19.27-3.53,45.53a184.38,184.38,0,0,1-50.29,92c-31.08,31.08-70.84,54.77-98.05,69.88ZM429.9,554.42l48.85,48.85c26.63-14.9,64-37.59,93.32-66.86a175.78,175.78,0,0,0,48-87.68,158.72,158.72,0,0,0,3.64-39.22,158.71,158.71,0,0,0-39.57,3.7,175.86,175.86,0,0,0-87.34,47.89C467.49,490.37,444.8,527.79,429.9,554.42Z" transform="translate(-279.3 -230.98)"/><path class="cls-3" d="M621.25,461.56c.52-1.83,1-3.62,1.45-5.39a1.83,1.83,0,0,0-.25-.06,53.89,53.89,0,0,1-45.39-45.4l-.06-.24c-1.77.44-3.56.93-5.39,1.45a59.45,59.45,0,0,0,49.64,49.64Z" transform="translate(-279.3 -230.98)"/><path class="cls-3" d="M587.31,445.86a62,62,0,0,1-17.11-33.7L570,410.9l1.23-.36c1.79-.51,3.62-1,5.43-1.46l1.38-.35.36,1.38c0,.12.06.25.08.37a52.46,52.46,0,0,0,44.22,44.22l.37.08,1.38.36-.35,1.38c-.46,1.82-1,3.65-1.47,5.43l-.35,1.23L621,463A62,62,0,0,1,587.31,445.86Zm-14.06-32.92a57.9,57.9,0,0,0,47,47c.25-.87.48-1.75.71-2.62a55.26,55.26,0,0,1-45.06-45.06C575,412.46,574.12,412.7,573.25,412.94Z" transform="translate(-279.3 -230.98)"/><circle class="cls-2" cx="270" cy="252.89" r="29.09"/><path class="cls-3" d="M525.69,507.48a33.39,33.39,0,1,1,47.22,0A33.44,33.44,0,0,1,525.69,507.48Zm41.15-41.15a24.8,24.8,0,1,0,0,35.07A24.82,24.82,0,0,0,566.84,466.33Z" transform="translate(-279.3 -230.98)"/><line class="cls-2" x1="121.98" y1="439.68" x2="62.64" y2="499.02"/><path class="cls-1" d="M338.9,733a4.29,4.29,0,0,1,0-6.07l59.34-59.33a4.29,4.29,0,1,1,6.07,6.07L345,733A4.29,4.29,0,0,1,338.9,733Z" transform="translate(-279.3 -230.98)"/><path class="cls-1" d="M320.32,757.55a4.25,4.25,0,0,1-3-7.25l12.52-12.52a4.25,4.25,0,0,1,6,6l-12.51,12.52A4.26,4.26,0,0,1,320.32,757.55Z" transform="translate(-279.3 -230.98)"/><path class="cls-1" d="M476.73,679.1a4.26,4.26,0,0,1-3-7.26l35.67-35.67a4.25,4.25,0,0,1,6,6l-35.67,35.67A4.23,4.23,0,0,1,476.73,679.1Z" transform="translate(-279.3 -230.98)"/><path class="cls-1" d="M361.23,562a4.26,4.26,0,0,1-3-7.26l13.22-13.22a4.25,4.25,0,1,1,6,6l-13.23,13.22A4.25,4.25,0,0,1,361.23,562Z" transform="translate(-279.3 -230.98)"/><path class="cls-1" d="M418,700.51a4.25,4.25,0,0,1-3-7.25L428.17,680a4.25,4.25,0,0,1,6,6L421,699.27A4.24,4.24,0,0,1,418,700.51Z" transform="translate(-279.3 -230.98)"/><path class="cls-1" d="M343.33,615.23a4.26,4.26,0,0,1-3-7.26l20.27-20.26a4.25,4.25,0,1,1,6,6L346.33,614A4.23,4.23,0,0,1,343.33,615.23Z" transform="translate(-279.3 -230.98)"/><path class="cls-1" d="M711,324.88a4,4,0,0,1-2.76-1.1L695.4,311.56l-17.35,3.66a4,4,0,0,1-4.43-5.64l7.64-16-8.84-15.37a4,4,0,0,1,4-6L694,274.59l11.88-13.15a4,4,0,0,1,6.91,1.95L716,280.83l16.18,7.23a4,4,0,0,1,.27,7.17l-15.58,8.45L715,321.3a4,4,0,0,1-2.6,3.33A3.91,3.91,0,0,1,711,324.88Zm-14.37-21.67a4,4,0,0,1,2.75,1.11l8.5,8.07,1.25-11.65a4,4,0,0,1,2.07-3.1l10.31-5.58-10.71-4.79a4,4,0,0,1-2.3-2.92l-2.12-11.53-7.86,8.7a4,4,0,0,1-3.5,1.28l-11.62-1.54,5.85,10.16a4,4,0,0,1,.14,3.72l-5.06,10.58,11.47-2.42A3.91,3.91,0,0,1,696.63,303.21Z" transform="translate(-279.3 -230.98)"/><path class="cls-1" d="M604.85,345.76a3.9,3.9,0,0,1-1.7-.38,4,4,0,0,1-2.3-3.54l-.2-9.78-8.16-5.38a4,4,0,0,1,.89-7.12l9.24-3.2,2.6-9.43a4,4,0,0,1,7-1.35l5.91,7.8,9.76-.44a4,4,0,0,1,3.47,6.28l-5.6,8,3.44,9.15a4,4,0,0,1-4.9,5.24L615,338.79l-7.64,6.1A4,4,0,0,1,604.85,345.76Zm-1.19-21.29,3.15,2.07a4,4,0,0,1,1.8,3.26l.08,3.78,2.95-2.36a4,4,0,0,1,3.65-.7l3.61,1.1-1.32-3.54a4,4,0,0,1,.46-3.69l2.16-3.1-3.77.17a4,4,0,0,1-3.37-1.58l-2.28-3-1,3.64a4,4,0,0,1-2.55,2.72Z" transform="translate(-279.3 -230.98)"/><path class="cls-1" d="M725.7,489.93a4,4,0,0,1-1.7-.38,4,4,0,0,1-2.3-3.54l-.27-13.9-11.61-7.66a4,4,0,0,1,.89-7.12l13.14-4.55,3.69-13.41a4,4,0,0,1,7.05-1.35L743,449.11l13.89-.63a4,4,0,0,1,3.47,6.28l-8,11.41,4.89,13a4,4,0,0,1-4.91,5.24l-13.31-4-10.86,8.68A4.06,4.06,0,0,1,725.7,489.93ZM721,462.24l6.6,4.35a4,4,0,0,1,1.8,3.26l.15,7.9,6.18-4.93a4,4,0,0,1,3.65-.7l7.57,2.29-2.78-7.4a4,4,0,0,1,.46-3.69l4.52-6.48-7.9.35a4,4,0,0,1-3.37-1.58l-4.77-6.3-2.1,7.62a4,4,0,0,1-2.54,2.72Z" transform="translate(-279.3 -230.98)"/><path class="cls-1" d="M644.15,610a4.12,4.12,0,0,1-1.7-.38,4,4,0,0,1-2.3-3.54l-.19-9.78-8.16-5.38a4,4,0,0,1,.89-7.12l9.24-3.2,2.6-9.43a4,4,0,0,1,7-1.35l5.9,7.8,9.77-.45a4,4,0,0,1,3.46,6.29l-5.59,8,3.44,9.15a4,4,0,0,1-4.91,5.23L654.29,603l-7.64,6.1A4,4,0,0,1,644.15,610ZM643,588.71l3.15,2.08a4,4,0,0,1,1.8,3.26l.07,3.78,3-2.36a4,4,0,0,1,3.66-.7l3.61,1.1-1.33-3.54a4,4,0,0,1,.47-3.69l2.15-3.1-3.77.17a4,4,0,0,1-3.37-1.58l-2.27-3-1,3.64a4,4,0,0,1-2.54,2.72Z" transform="translate(-279.3 -230.98)"/><path class="cls-1" d="M506.43,272.75a4,4,0,0,1-1.7-.38,4,4,0,0,1-2.3-3.55l-.19-9.77-8.16-5.38a4,4,0,0,1,.89-7.12l9.23-3.21,2.6-9.42a4,4,0,0,1,7.05-1.35l5.9,7.79,9.76-.44A4,4,0,0,1,533,246.2l-5.59,8,3.43,9.16a4,4,0,0,1-4.9,5.23l-9.36-2.84-7.64,6.1A4,4,0,0,1,506.43,272.75Zm-1.18-21.3,3.15,2.08a4,4,0,0,1,1.79,3.26l.08,3.77,3-2.35a4,4,0,0,1,3.65-.7l3.62,1.09-1.33-3.53a4,4,0,0,1,.46-3.69l2.16-3.1-3.77.17a4,4,0,0,1-3.37-1.58l-2.28-3-1,3.64a4,4,0,0,1-2.55,2.71Z" transform="translate(-279.3 -230.98)"/><path class="cls-1" d="M424.61,408.73a4,4,0,0,1-1.7-.38,4,4,0,0,1-2.3-3.54l-.25-12.71-10.61-7a4,4,0,0,1,.89-7.12l12-4.17L426,361.58a4,4,0,0,1,7.05-1.36l7.67,10.14,12.69-.58a4,4,0,0,1,3.47,6.28l-7.27,10.43,4.47,11.89a4,4,0,0,1-4.91,5.24L437,399.93l-9.93,7.93A4,4,0,0,1,424.61,408.73Zm-3.69-25.84,5.6,3.69a4,4,0,0,1,1.8,3.26l.13,6.71,5.24-4.19a4,4,0,0,1,3.65-.7l6.42,1.95-2.36-6.28a4,4,0,0,1,.47-3.69l3.83-5.5-6.7.3a4,4,0,0,1-3.37-1.58l-4.05-5.35L429.8,378a4,4,0,0,1-2.54,2.71Z" transform="translate(-279.3 -230.98)"/></svg>