<svg xmlns="http://www.w3.org/2000/svg" viewBox="0 0 1595.89 1292.69"><defs><style>.cls-1,.cls-2,.cls-4{fill:#fff;}.cls-2,.cls-4,.cls-5,.cls-7{stroke:#494949;stroke-miterlimit:10;}.cls-2{stroke-width:30px;}.cls-3{fill:#18344e;}.cls-4,.cls-5,.cls-7{stroke-width:25px;}.cls-5,.cls-7{fill:none;}.cls-6{fill:#f56d1a;}.cls-7{stroke-linecap:round;}.cls-8{fill:#f45d01;}</style></defs><g id="Layer_2" data-name="Layer 2"><g id="Layer_2-2" data-name="Layer 2"><path class="cls-1" d="M5.8,59.42c7.72,0,7.73-12,0-12s-7.74,12,0,12Z"/><path class="cls-2" d="M43.81,1112.65H1580.89a0,0,0,0,1,0,0v64.22a100.81,100.81,0,0,1-100.81,100.81H146.23A102.43,102.43,0,0,1,43.81,1175.26v-62.61a0,0,0,0,1,0,0Z"/><polyline class="cls-3" points="141.71 1112.65 157.89 983.22 242.69 645.06 1423.82 645.06 1465.32 974.51 1481.5 1103.95"/><path class="cls-4" d="M743.84,474.16H882.57a8.21,8.21,0,0,1,8.21,8.21v94a0,0,0,0,1,0,0h-155a0,0,0,0,1,0,0V482.26A8.1,8.1,0,0,1,743.84,474.16Z"/><line class="cls-5" x1="813.13" y1="474.16" x2="813.13" y2="389.7"/><path class="cls-6" d="M813.13,389.7c-101.11,0-111-95.23-107.25-129.65C717.42,152.72,813,60,813,60s95.31,90.61,108.35,194.61C925.68,288.82,912.65,389.7,813.13,389.7Z"/><line class="cls-7" x1="617.4" y1="324.23" x2="536.2" y2="379.24"/><line class="cls-7" x1="608.47" y1="244.41" x2="482.27" y2="261.67"/><line class="cls-7" x1="628.05" y1="161.35" x2="496.29" y2="127.92"/><line class="cls-7" x1="680.74" y1="81.53" x2="566.11" y2="12.5"/><line class="cls-7" x1="948.25" y1="81.53" x2="1060.16" y2="12.5"/><line class="cls-7" x1="998.22" y1="161.35" x2="1125.15" y2="127.92"/><line class="cls-7" x1="1019.44" y1="244.41" x2="1143.48" y2="261.67"/><line class="cls-7" x1="1008.87" y1="324.23" x2="1086.31" y2="379.24"/><path class="cls-8" d="M127.34,576.35H1496.49c69.49,0,69.49,70.33,69.49,70.33V888.29s-3.24,80.9-98.61,80.9c-103.55,0-102-82.53-102-82.53l.61-124.57s3.23-64.72-61.49-64.72c-66.87,0-66.87,62-66.87,62V918.61s4,98-98.16,98c-95.24,0-92.51-98-92.51-98V759.93s6.22-71.19-72.52-71.19c-72.27,0-69,73.89-69,73.89v99.78s-2,91.14-92.92,91.14c-97.87,0-101.24-99.77-101.24-99.77v-82s3.08-72.27-65.79-72.27c-75.67,0-67.7,72.27-67.7,72.27V927.66s-2.42,89-88.71,89c-96,0-94.87-90.61-94.87-90.61l-.49-157.61S390.87,690.9,324,690.9c-71.19,0-70.11,76.58-70.11,76.58V882.9s2.15,100.31-96,100.31C58.18,983.21,58.71,877,58.71,877v-213S58.38,576.35,127.34,576.35Z"/></g></g></svg>