<svg id="Layer_1" data-name="Layer 1" xmlns="http://www.w3.org/2000/svg" viewBox="0 0 143.81 167.32"><defs><style>.cls-1{fill:#f45d01}.cls-2{fill:#1c3e58}</style></defs><g id="life"><path class="cls-1" d="M89.19 251.75l1.22-1.59.77-1v-3.4h2.59l1.08-1.4h22.35v-26.5a34.19 34.19 0 007.62 21.47c.33.4.66.79 1 1.18l2 2.24a14.1 14.1 0 01.8-2.11 14.47 14.47 0 012.74-4l.1-.11a13.89 13.89 0 005.61 3.42l-2.7-2.9c-.53-.57-1-1.16-1.52-1.76a32.05 32.05 0 01-2.3-3.18 33.75 33.75 0 01-3-5.81 34.1 34.1 0 01-2.38-12.52c0-6.56-5-12.08-11.75-13.58a16.46 16.46 0 01-20.5 0c-6.72 1.5-11.75 7-11.75 13.58v35a3.17 3.17 0 003.3 3zm-6-3v-3h4v3a9.78 9.78 0 010 1h-3.96c-.02-.28-.04-.62-.04-1zM205.31 290.31a5.1 5.1 0 00-2.21-2.66l-.19-.06h-.2a28 28 0 00-6-.35h-.24a6.19 6.19 0 011.72 2c.64 1.41-.15 2.85-3.88 4.34-2.11.85-4.67 1.94-7.41 3.15l-2.46 1.1C175 302 164.35 307.15 163 307.84c-3.16 1.63-6.83 2.93-21.82 1.86-14.13-1-25.22-2-30.93-1-.94.16-2.22.43-3.67.76l-9.08-7.67-2.36-2-2.37-2-2.36-2-.91-.79-1.5-1.33-.36-.3c.52-.64 1.05-1.25 1.59-1.84s1.08-1.18 1.62-1.73l.38-.39a54.41 54.41 0 0110-7.9c1.39-.85 2.73-1.59 4-2.22a42.19 42.19 0 0110-3.62l.34-.06a14.42 14.42 0 011.66-.15h2a50.37 50.37 0 019.51 1.74l2.49.66c1.24.35 2.57.73 4 1.16l2.9.87c1.82.55 3.79 1.18 5.92 1.85l7.16 2.3 1.85.6a5.29 5.29 0 012.54 1.73 2.76 2.76 0 01.28.39 5.14 5.14 0 01-4.49 2.55 5.06 5.06 0 01-1.33-.17l-1.54-.41-11.31-3-2-.54-.87-.23a5.28 5.28 0 00-2.62 0 4.88 4.88 0 00-3.51 3.09 4.08 4.08 0 00.49 3.65 4.66 4.66 0 002.72 1.9l5 1.34h.05l9.57 2.52h.06l1 .27.84.23 2.24.59a5.08 5.08 0 001.34.17 5.24 5.24 0 003.91-1.72 4.23 4.23 0 00.88-1.51 3.87 3.87 0 00.21-1.49 3.51 3.51 0 00-.15-1l.8.21h.06a5.08 5.08 0 001.34.17 5.26 5.26 0 00.89-.08 7.49 7.49 0 00.44-.9 8.44 8.44 0 00.4-5.29 9.05 9.05 0 00-.55-1.56 9.89 9.89 0 00-.72-1.27l-1.93-.51-.94-.25-1.28-.34a7.84 7.84 0 00-1.32-.57l-2.43-.78-3-1-.48-.15-.48-.15-4.62-1.46-3.34-1c-1.43-.44-2.77-.85-4-1.22s-2.54-.74-3.7-1.05l-.3-.08-.36-.1-.38-.11a56.1 56.1 0 00-11.25-2.12H116.4l-.68.06-.46.06h-.08l-.92.18a47.26 47.26 0 00-6.57 2.19l-.24.1-1.63.71-.62.29q-2.1 1-4 2.07a54.84 54.84 0 00-10 7.34l-.55.52c-.5.47-1 .95-1.45 1.42-.71.72-1.38 1.44-2 2.14-.42.47-.83.94-1.21 1.4s-.74.89-1.07 1.33a1.74 1.74 0 00-.18.22l-.11.14c-.39.5-.76 1-1.09 1.45l1.67 1.41.72.61.65.55 4.77 4 1.77 1.5c2.57.86 4.92 2.12 6.34 5.25l.36.42 1.93 1.63 5.87 5a7.57 7.57 0 002 .74 4.32 4.32 0 001.67.07l.32-.05a3.86 3.86 0 01.49-.06l.5-.07c.56-.06 1.15-.11 1.79-.14 1.94-.11 4.24-.1 6.85 0l2.66.12 1.5.08 3 .18 4.91.34 3.44.25 5.5.4c10.19.72 15.15.36 18.27-.46l.46-.13c.33-.1.64-.2.94-.31l.44-.17c.37-.15.71-.3 1-.46l.67-.33L203.37 296l.27-.15a3.65 3.65 0 00.5-.34 4.3 4.3 0 001.17-5.2z" transform="translate(-64.45 -160.44)"/><path class="cls-2" d="M103.2 199.75c7.72 0 14-7.18 14-16a17.56 17.56 0 00-1.8-7.8c2.35-3.3 2.63-8.34.63-13a2 2 0 00-1.14-1.09 2 2 0 00-1.57.08 22.76 22.76 0 01-6.66 2.08 21.34 21.34 0 01-6 0 11.62 11.62 0 00-6.79.69c-5.59 2.51-7.12 8.55-7.12 8.55-1.49 5.59 1.29 10.22 2.51 11.9.62 8.22 6.62 14.59 13.94 14.59zm0-4c-5.36 0-9.74-5-10-11.44v-.1a3.53 3.53 0 010-.46v-.36-.07a11.06 11.06 0 01.85-5 10.31 10.31 0 011.61-2.66 15.87 15.87 0 0010.57 4.46 12.21 12.21 0 006-1.4 13.71 13.71 0 011 5.06c-.03 6.58-4.52 11.97-10.03 11.97zm-12.56-21.52s1.23-4.26 4.88-5.9a5.62 5.62 0 012.5-.54 19.4 19.4 0 012.2.18 25.42 25.42 0 007 0 26.5 26.5 0 005.79-1.54c.76 3 .32 6-1.22 7.64h-.05l-.17.15a7.51 7.51 0 01-5.28 1.81 12.15 12.15 0 01-9.05-4.61 2 2 0 00-2.83-.26 14.68 14.68 0 00-4.06 5.51 8.73 8.73 0 01.29-2.44zM155.14 196.3a12.12 12.12 0 004.93 3.44 2 2 0 101.41-3.74 8.12 8.12 0 01-5-5.54 17.31 17.31 0 001.66-1.88c2.47-3.27 2.89-6.38 3.29-9.39a22.3 22.3 0 012.26-8.14 12 12 0 013.54-4.56c3-2.22 6.71-2.25 9.28-1.88a1.82 1.82 0 00.57 0c2.57-.37 6.26-.34 9.28 1.88a12 12 0 013.54 4.56 22.3 22.3 0 012.26 8.14c.4 3 .82 6.12 3.29 9.39a15.61 15.61 0 001.66 1.88 8.11 8.11 0 01-1.7 3.23 8.28 8.28 0 01-3.32 2.31 2 2 0 00.71 3.87 1.93 1.93 0 00.7-.13 12.2 12.2 0 007.78-9.71 2 2 0 00-.69-1.81 12.6 12.6 0 01-1.95-2.05c-1.84-2.44-2.13-4.67-2.51-7.51a26 26 0 00-2.69-9.47 15.82 15.82 0 00-4.71-5.93 16.49 16.49 0 00-11.93-2.65 16.49 16.49 0 00-11.94 2.65 15.82 15.82 0 00-4.71 5.93 26 26 0 00-2.69 9.47c-.38 2.84-.67 5.08-2.51 7.51a12.6 12.6 0 01-2 2.05 2 2 0 00-.68 1.81 12 12 0 002.87 6.27z" transform="translate(-64.45 -160.44)"/><path class="cls-2" d="M180.81 167.84a2 2 0 00-2.78.54 33.73 33.73 0 01-8.26 8.58 33.25 33.25 0 01-5.5 3.22 2 2 0 00.8 3.81c1.13 7.41 6 12.74 11.71 12.74 5.5 0 10.23-5 11.57-11.94a2 2 0 00.67.12 2 2 0 00.81-3.83 27.24 27.24 0 01-10.37-7.89q1-1.24 1.89-2.58a2 2 0 00-.54-2.77zm.12 12.46a31.09 31.09 0 003.68 2.57c-.68 5.65-4 9.86-7.83 9.86s-7.11-4.2-7.82-9.75a1.86 1.86 0 00-.2-.63 35.33 35.33 0 003.35-2.15 36.81 36.81 0 004.65-4 31.6 31.6 0 004.17 4.1zM141.2 234.53a8 8 0 008-8v-4a8 8 0 00-16 0v4a8 8 0 008 8zm-4-12a4 4 0 018 0v4a4 4 0 11-8 0z" transform="translate(-64.45 -160.44)"/><path class="cls-2" d="M207.74 289.2a6.75 6.75 0 00-4.68-3.62 32.06 32.06 0 00-9-.18 57 57 0 00-6.27 1.05l1.3-20a50.12 50.12 0 0012.11-5 2 2 0 001-2 82.3 82.3 0 00-5.17-18.5v-27a18.92 18.92 0 00-9.88-16.48 2 2 0 00-1.25-.49h-.22a2 2 0 00-1.9 2.4.31.31 0 000 .08 7 7 0 01-13.84-.07 2 2 0 00-.16-1.16 2 2 0 00-1-1l-.15-.06a2 2 0 00-2.06.39c-6 3-9.65 8.59-9.65 14.74 0 5.2 0 7-2.22 12.59-2.48 6.36-6.29 9.53-8.72 10.68a12.14 12.14 0 01-4.65 1.12 9.75 9.75 0 01-7.89-4.05 1.43 1.43 0 00-.23-.26 32.17 32.17 0 01-5.88-18.56c0-7.39-5.47-13.78-13.31-15.53a2 2 0 00-1.66.36 14.45 14.45 0 01-18.06 0 2 2 0 00-1.66-.36c-7.83 1.75-13.31 8.14-13.31 15.53v35c0 1.37 0 5 2.6 5h5.4v33.98c-.61.65-1.22 1.32-1.83 2q-.4.46-.81 1l-.45-.38-3.76-3.18a2 2 0 00-1.47-.47 2 2 0 00-1.36.72l-12.6 15.14a2 2 0 002.95 2.55l.41-.5 10.9-13.1 4.22 3.57 1.67 1.41.72.61.65.55 4.77 4 1.77 1.5 6.7 5.67 1.93 1.63 5.87 5 1.47 1.25 1.25 1.05 2.71 2.3-1.16 1.28a1.81 1.81 0 00-.37.6 2 2 0 00.5 2.22 2 2 0 002.83-.13l2.55-2.81a2 2 0 00-.19-2.87l-.57-.48c5.12-.06 12.23.47 20.65 1.09l4.77.35c3.84.27 7 .39 9.56.39 7.77 0 10.66-1.1 13.35-2.49.54-.28 11.5-5.72 21.17-10.51l18.11-9c2.91-1.41 5.05-5.28 3.5-8.56zm-17.84-73.34c.13-.36.26-.72.4-1.07a12.73 12.73 0 001.07-7c0-.24-.09-.49-.15-.73a14.69 14.69 0 011.74 6.87v18.67q-1.91-3.44-4.12-6.69a24.84 24.84 0 011.06-10.05zm-29.14-3s0-4.42 2-5.82a12 12 0 00.44 7.72c.14.37.28.74.41 1.12a24.47 24.47 0 011.08 10 82 82 0 00-5.58 9.42 2 2 0 00.89 2.7 2.08 2.08 0 00.9.21 2 2 0 001.79-1.1 77.52 77.52 0 015.59-9.38 2.19 2.19 0 00.35-.95 28.81 28.81 0 00-1.24-12.2c-.14-.4-.29-.81-.44-1.21a9.1 9.1 0 01-.84-5 21.72 21.72 0 011.47-4.13 11.14 11.14 0 009.18 4.93 11 11 0 009.17-4.92 21.48 21.48 0 011.47 4.13 9 9 0 01-.87 5c-.14.39-.29.77-.43 1.18a28.87 28.87 0 00-1.21 12.19 2.06 2.06 0 00.34.95 78.09 78.09 0 017.68 13.9 1.17 1.17 0 000 .11 2 2 0 00.39.95 77.83 77.83 0 014.58 16 45.71 45.71 0 01-11 4.25 40.58 40.58 0 01-20.3 0c-1.45-.35-2.9-.78-4.31-1.27a2 2 0 00-1.32 3.78c1.15.4 2.32.74 3.51 1.06l1.7 26.43a66 66 0 01-7.53 1.83 7.76 7.76 0 00.84-1.27 7.49 7.49 0 00.44-.9 8.44 8.44 0 00.4-5.29 9.05 9.05 0 00-.55-1.56 9.89 9.89 0 00-.72-1.27 9.54 9.54 0 00-1.6-1.76 9.43 9.43 0 00-3.24-1.8l-3.06-1v-16.14h3.69a4.37 4.37 0 004.31-4.42v-12.21a19.12 19.12 0 00-5.14-13.21 4 4 0 00-.29-.29c3.39-4.29 6.91-10.11 7.05-20.79zm24.24 54.5l-1.3 20.1c-1.63.44-3.27.93-4.91 1.43v-20.81a52.75 52.75 0 006.21-.72zm-10.21.71v22.1l-1.37.44-3.27 1.05-1.56-24.3a50.52 50.52 0 006.18.71zm-43.31-31.53a13.89 13.89 0 005.61 3.42 12.85 12.85 0 002.44.55 13.54 13.54 0 001.68.11 13.75 13.75 0 009-3.46 1.8 1.8 0 00.38-.35l.31-.28.14.14a15.08 15.08 0 014.13 10.45v12.21a.38.38 0 01-.31.42h-3.66v-12a2 2 0 00-4 0v12h-12v-12a2 2 0 00-4 0v12h-3.7a.39.39 0 01-.31-.42v-12.21a15.67 15.67 0 01.12-1.94 15.25 15.25 0 011.31-4.54 14.47 14.47 0 012.74-4zm9.73 29.21a2 2 0 00-2 2v8.3l-4-1.2v-11.1h12v14.81l-4-1.26v-9.55a2 2 0 00-2.02-2zm-13.69-2h3.69v10a57.64 57.64 0 00-12-2.25v-37.2a35.65 35.65 0 004.83 7.17 19.31 19.31 0 00-.83 5.65v12.21a4.37 4.37 0 004.29 4.42zm-40.31-15a9.78 9.78 0 010 1h-2.72c-.69 0-1.3-.47-1.3-1v-3h4zm0-7h-4v-28c0-5.24 3.79-9.82 9.33-11.41a18.41 18.41 0 0021.35 0c5.53 1.59 9.32 6.17 9.32 11.41a36 36 0 005.79 19.64 17.94 17.94 0 00-3.15 4 32.12 32.12 0 01-6.64-19.58v-2.61a2 2 0 00-4 0v26.58h-24v-26a2 2 0 00-4 0zm16 12a2 2 0 00-2 2v21.18a57.23 57.23 0 00-10 7v-38.18h24v25.87h-.22a41.81 41.81 0 00-9.78 3.26v-19.13a2 2 0 00-2.02-2zm99.29 40.45l-18.11 9c-17.32 8.58-21.11 10.46-21.26 10.55-2.88 1.5-6.43 2.66-20.76 1.65l-4.77-.4c-11.09-.82-20-1.48-25.39-.86l-5.62-4.75-9.08-7.67-2.36-2-2.37-2-2.36-2-.92-.72-1.5-1.33-.36-.3c.52-.64 1.05-1.25 1.59-1.84s1.08-1.18 1.62-1.73l.38-.39a54.41 54.41 0 0110-7.9c1.39-.85 2.73-1.59 4-2.22a42.19 42.19 0 0110-3.62l.34-.06a14.42 14.42 0 011.66-.15h2a50.37 50.37 0 019.51 1.74l2.49.66c1.24.35 2.57.73 4 1.16l2.9.87c1.82.55 3.79 1.18 5.92 1.85l7.16 2.3 1.85.6a5.29 5.29 0 012.54 1.73 2.76 2.76 0 01.28.39 4.42 4.42 0 01.34.6 4.49 4.49 0 01.38 1.28 4.38 4.38 0 01-.3 2.36 4.44 4.44 0 01-.45.83 4.66 4.66 0 01-.75.91 6.4 6.4 0 01-6.29 1.46h-.16a175.58 175.58 0 00-17.65-4.5 2 2 0 00-2.37 1.54 1.46 1.46 0 000 .51 2 2 0 001.57 1.86q3.36.72 6.2 1.38h.05c3.88.91 7.05 1.74 9.57 2.52h.06l1.26.41h.21c5.22 2.16 11.87 1 19.2-1.13 2.56-.74 5.21-1.59 7.89-2.46l.14-.05 1.89-.61 2.11-.67c1.54-.49 3.09-1 4.63-1.4 1.37-.39 2.73-.75 4.08-1.07a45.63 45.63 0 0110.74-1.45 25.66 25.66 0 014.16.35 2.88 2.88 0 011.74 1.38c.45 1.07-.39 2.77-1.65 3.39z" transform="translate(-64.45 -160.44)"/><path class="cls-2" d="M103 316.62a3.5 3.5 0 103.49 3.49 3.49 3.49 0 00-3.49-3.49zM178.88 314.83c-7.36 3.65-11.4 5.65-12.08 6-3.48 1.81-7.23 2.93-15.17 2.93-2.76 0-6-.13-9.84-.41a2 2 0 00-.28 4c4 .28 7.26.42 10.12.42 8.75 0 13-1.29 17.06-3.4.59-.31 4.62-2.3 12-5.95a2 2 0 10-1.78-3.58z" transform="translate(-64.45 -160.44)"/><circle class="cls-2" cx="120.64" cy="152.92" r="2.25"/></g></svg>