<svg xmlns="http://www.w3.org/2000/svg" viewBox="0 0 1595.89 1814.83"><defs><style>.cls-1,.cls-2,.cls-5{fill:#fff;}.cls-2,.cls-5,.cls-6,.cls-8{stroke:#494949;stroke-miterlimit:10;}.cls-2{stroke-width:30px;}.cls-3{fill:#18344e;}.cls-4{fill:#f45d01;}.cls-5,.cls-6,.cls-8{stroke-width:25px;}.cls-6,.cls-8{fill:none;}.cls-7{fill:#f56d1a;}.cls-8{stroke-linecap:round;}</style></defs><g id="Layer_2" data-name="Layer 2"><g id="Layer_2-2" data-name="Layer 2"><path class="cls-1" d="M5.8,581.56c7.72,0,7.73-12,0-12s-7.74,12,0,12Z"/><path class="cls-2" d="M43.81,1634.79H1580.89a0,0,0,0,1,0,0V1699a100.81,100.81,0,0,1-100.81,100.81H146.23A102.43,102.43,0,0,1,43.81,1697.4v-62.61a0,0,0,0,1,0,0Z"/><polyline class="cls-3" points="141.71 1634.79 157.89 1505.35 219.38 1188.23 1436.09 1188.23 1465.32 1496.65 1481.5 1626.09"/><path class="cls-4" d="M127.34,1098.49H1496.49c69.49,0,69.49,70.32,69.49,70.32v241.62s-3.24,80.9-98.61,80.9c-103.55,0-102-82.53-102-82.53l.61-124.57s3.23-64.72-61.49-64.72c-66.87,0-66.87,62-66.87,62v159.22s4,98-98.16,98c-95.24,0-92.51-98-92.51-98V1282.07s6.22-71.19-72.52-71.19c-72.27,0-69,73.89-69,73.89v99.77s-2,91.15-92.92,91.15c-97.87,0-101.24-99.77-101.24-99.77v-82s3.08-72.27-65.79-72.27c-75.67,0-67.7,72.27-67.7,72.27V1449.8s-2.42,89-88.71,89c-96,0-94.87-90.61-94.87-90.61l-.49-157.61S390.87,1213,324,1213c-71.19,0-70.11,76.58-70.11,76.58V1405s2.15,100.31-96,100.31c-99.71,0-99.18-106.24-99.18-106.24v-213S58.38,1098.49,127.34,1098.49Z"/><path class="cls-5" d="M742.92,474.16H881.66a8.21,8.21,0,0,1,8.21,8.21V596.16a0,0,0,0,1,0,0h-155a0,0,0,0,1,0,0V482.26A8.1,8.1,0,0,1,742.92,474.16Z"/><line class="cls-6" x1="812.35" y1="474.16" x2="812.35" y2="389.7"/><path class="cls-7" d="M812.35,389.7c-101.12,0-111-95.23-107.26-129.65C716.63,152.72,812.25,60,812.25,60s95.3,90.61,108.34,194.61C924.89,288.82,911.86,389.7,812.35,389.7Z"/><line class="cls-8" x1="616.61" y1="324.23" x2="535.41" y2="379.24"/><line class="cls-8" x1="607.68" y1="244.41" x2="481.48" y2="261.67"/><line class="cls-8" x1="627.26" y1="161.35" x2="495.5" y2="127.92"/><line class="cls-8" x1="679.95" y1="81.53" x2="565.32" y2="12.5"/><line class="cls-8" x1="947.46" y1="81.53" x2="1059.37" y2="12.5"/><line class="cls-8" x1="997.43" y1="161.35" x2="1124.36" y2="127.92"/><line class="cls-8" x1="1018.65" y1="244.41" x2="1142.69" y2="261.67"/><line class="cls-8" x1="1008.08" y1="324.23" x2="1085.53" y2="379.24"/><polyline class="cls-3" points="269.26 1098.14 283.71 950.24 355.28 660.77 1303.41 660.77 1341.03 950.24 1355.48 1098.14"/><path class="cls-4" d="M292.72,599.29s879.08-5.45,1054.92-5.94c51.23-.14,53.93,49.08,53.93,49.08s7.53,181.6,1.92,244.86c-4.62,52-50.46,75.5-99.52,75.39-48-.11-77.46-26.86-90.08-52.64-14.18-28.94-10.25-128.46-10.25-128.46s3.5-65.8-64.69-65.19c-54,.49-59,54.78-59,54.78s-3.29,46-5.47,64.34c-4.45,37.55-46.11,79.28-100.58,77.66-62.08-1.84-86.84-42.6-90.28-81.16-2.45-27.42-3.68-82.07-3.68-82.07s-4.47-60.86-67.58-59.59c-54.18,1.08-57.71,68.58-57.71,68.58s3.38,137.43,1.18,160.44c-4.68,48.82-58.61,86.57-107.15,81.17-66.47-7.38-88.07-40.24-92.15-73.34-4.45-36.08,0-122.46,0-155.75,0-18.78-19.46-54.72-68.59-54.72S424.58,754.8,424.31,774c-.42,30.8,1.89,84.09,0,110-2.34,32.09-36.67,76.58-99.23,82s-100.6-50.91-103.55-84.14c-4.84-54.44,0-217.88,0-217.88S224.76,599.29,292.72,599.29Z"/></g></g></svg>