<svg xmlns="http://www.w3.org/2000/svg" viewBox="0 0 1567.08 2309.86"><defs><style>.cls-1,.cls-4{fill:#fff;}.cls-1,.cls-4,.cls-5,.cls-7{stroke:#494949;stroke-miterlimit:10;}.cls-1{stroke-width:30px;}.cls-2{fill:#18344e;}.cls-3{fill:#f45d01;}.cls-4,.cls-5,.cls-7{stroke-width:25px;}.cls-5,.cls-7{fill:none;}.cls-6{fill:#f56d1a;}.cls-7{stroke-linecap:round;}</style></defs><g id="Layer_2" data-name="Layer 2"><g id="Layer_2-2" data-name="Layer 2"><path class="cls-1" d="M15,2129.83H1552.08a0,0,0,0,1,0,0v64.22a100.81,100.81,0,0,1-100.81,100.81H117.43A102.43,102.43,0,0,1,15,2192.43v-62.61a0,0,0,0,1,0,0Z"/><polyline class="cls-2" points="112.9 2129.83 129.08 2000.39 190.57 1681.93 1436.52 1681.93 1436.52 1991.68 1452.7 2121.12"/><path class="cls-3" d="M98.53,1593.52H1467.69c69.48,0,69.48,70.33,69.48,70.33v241.62s-3.24,80.9-98.61,80.9c-103.55,0-102-82.54-102-82.54l.61-124.56s3.23-64.72-61.48-64.72c-66.88,0-66.88,62-66.88,62v159.22s4,98-98.16,98c-95.24,0-92.51-98-92.51-98V1777.11s6.22-71.19-72.52-71.19c-72.27,0-69,73.89-69,73.89v99.77s-2,91.15-92.92,91.15c-97.87,0-101.23-99.78-101.23-99.78v-82s3.07-72.27-65.8-72.27c-75.67,0-67.69,72.27-67.69,72.27v155.87s-2.42,89-88.72,89c-96,0-94.87-90.62-94.87-90.62l-.49-157.61s-2.79-77.53-69.67-77.53c-71.19,0-70.11,76.59-70.11,76.59v115.41s2.16,100.32-96,100.32c-99.71,0-99.17-106.25-99.17-106.25v-213S29.57,1593.52,98.53,1593.52Z"/><polyline class="cls-2" points="240.46 1593.17 254.9 1445.28 352.83 1154.47 1271.09 1154.47 1312.23 1445.28 1326.67 1593.17"/><path class="cls-3" d="M263.91,1094.32s879.08-5.45,1054.92-5.93c51.24-.14,53.93,49.08,53.93,49.08s7.54,181.59,1.92,244.85c-4.61,52-50.46,75.51-99.52,75.4-48-.11-77.46-26.87-90.08-52.64-14.17-28.94-10.25-128.47-10.25-128.47s3.51-65.79-64.69-65.18c-54,.48-59,54.78-59,54.78s-3.29,46-5.47,64.34c-4.44,37.55-46.11,79.28-100.58,77.66-62.08-1.84-86.83-42.61-90.27-81.16-2.45-27.43-3.69-82.07-3.69-82.07s-4.47-60.86-67.58-59.6c-54.18,1.09-57.71,68.58-57.71,68.58s3.38,137.43,1.18,160.44c-4.67,48.82-58.61,86.57-107.14,81.18-66.48-7.39-88.08-40.25-92.16-73.35-4.45-36.08,0-122.45,0-155.74,0-18.79-19.45-54.73-68.59-54.73s-63.35,38.08-63.61,57.3c-.43,30.81,1.89,84.09,0,110-2.34,32.09-36.68,76.58-99.24,82s-100.6-50.91-103.55-84.13c-4.84-54.45,0-217.89,0-217.89S196,1094.32,263.91,1094.32Z"/><path class="cls-4" d="M714.37,474.16H853.11a8.21,8.21,0,0,1,8.21,8.21V596.16a0,0,0,0,1,0,0h-155a0,0,0,0,1,0,0V482.26A8.1,8.1,0,0,1,714.37,474.16Z"/><line class="cls-5" x1="783.8" y1="474.16" x2="783.8" y2="389.7"/><path class="cls-6" d="M783.8,389.7c-101.11,0-111-95.23-107.26-129.65C688.08,152.72,783.7,60,783.7,60S879,150.57,892.05,254.57C896.34,288.82,883.31,389.7,783.8,389.7Z"/><line class="cls-7" x1="588.06" y1="324.23" x2="506.87" y2="379.24"/><line class="cls-7" x1="579.13" y1="244.41" x2="452.93" y2="261.67"/><line class="cls-7" x1="598.71" y1="161.35" x2="466.96" y2="127.92"/><line class="cls-7" x1="651.4" y1="81.53" x2="536.77" y2="12.5"/><line class="cls-7" x1="918.91" y1="81.53" x2="1030.82" y2="12.5"/><line class="cls-7" x1="968.89" y1="161.35" x2="1095.81" y2="127.92"/><line class="cls-7" x1="990.1" y1="244.41" x2="1114.15" y2="261.67"/><line class="cls-7" x1="979.53" y1="324.23" x2="1056.98" y2="379.24"/><polyline class="cls-2" points="332.73 1093.9 387.38 940.96 506.87 655.05 1056.98 655.05 1176.74 940.96 1230.1 1088.39"/><path class="cls-3" d="M1214.35,649.69s6.63-53.53-67.8-53.53c-175.84,0-720.38,2.82-720.38,2.82C358.22,599,355,663.7,355,663.7s-4.84,163.44,0,217.88c3,33.23,41,89.53,103.55,84.14s96.9-49.89,99.24-82c1.89-25.93-.42-79.22,0-110,.26-19.23,14.48-57.3,63.61-57.3S690,752.36,690,771.14c0,33.29-4.45,119.67,0,155.75,4.08,33.1,32.93,72.64,99.81,73.35,48.12.51,94.81-32.37,99.48-81.18,2.2-23-1.18-160.44-1.18-160.44s3.53-67.5,57.71-68.58c63.11-1.27,67.58,59.59,67.58,59.59s1.24,54.65,3.69,82.07c3.44,38.56,12.19,130.54,93.89,132.66,93.84,2.42,93.44-89.9,97-129.16C1214.5,762.11,1214.35,649.69,1214.35,649.69Z"/></g></g></svg>